<svg width="32" height="32" viewBox="0 0 32 32" fill="none" xmlns="http://www.w3.org/2000/svg">
<g clip-path="url(#clip0_127_507)">
<path d="M15.9997 14.125C17.4724 14.125 18.6663 12.8938 18.6663 11.375C18.6663 9.85622 17.4724 8.625 15.9997 8.625C14.5269 8.625 13.333 9.85622 13.333 11.375C13.333 12.8938 14.5269 14.125 15.9997 14.125Z" stroke="white" stroke-linecap="round" stroke-linejoin="round"/>
<path d="M16.0003 27.875C16.0003 27.875 25.3337 21.2115 25.3337 12.6442C25.3337 10.1196 24.3503 7.69832 22.6 5.91312C20.8496 4.12792 18.4757 3.125 16.0003 3.125C13.525 3.125 11.151 4.12792 9.40066 5.91312C7.65032 7.69832 6.66699 10.1196 6.66699 12.6442C6.66699 21.2115 16.0003 27.875 16.0003 27.875Z" stroke="white" stroke-linecap="round" stroke-linejoin="round"/>
</g>
<defs>
<clipPath id="clip0_127_507">
<rect width="32" height="32" fill="white"/>
</clipPath>
</defs>
</svg>
