<svg width="23" height="28" viewBox="0 0 23 28" fill="none" xmlns="http://www.w3.org/2000/svg">
<path d="M22.9863 23.09L21.6908 7.3337C21.6101 6.31859 20.7207 5.52338 19.666 5.52338H17.1072V5.41237C17.1072 2.42796 14.5919 0 11.5001 0C8.40824 0 5.89289 2.42796 5.89289 5.41237V5.52338H3.3342C2.27943 5.52338 1.38999 6.31854 1.30954 7.33157L0.0137063 23.0922C-0.0865746 24.3541 0.366956 25.6104 1.25793 26.5389C2.1489 27.4674 3.41193 28 4.72312 28H18.277C19.5881 28 20.8512 27.4675 21.7422 26.5389C22.6332 25.6104 23.0867 24.3541 22.9863 23.09ZM7.592 5.41237C7.592 3.33233 9.34522 1.64008 11.5001 1.64008C13.6549 1.64008 15.4081 3.33238 15.4081 5.41237V5.52338H7.592V5.41237ZM20.4956 25.4245C19.9167 26.0277 19.1288 26.3599 18.277 26.3599H4.72317C3.87129 26.3599 3.08344 26.0277 2.50453 25.4245C1.92567 24.8212 1.64273 24.0375 1.70777 23.2198L3.0035 7.4591C3.01664 7.29329 3.16191 7.16346 3.3342 7.16346H5.89289V9.18334C5.89289 9.63621 6.27328 10.0034 6.74245 10.0034C7.21161 10.0034 7.592 9.63621 7.592 9.18334V7.16346H15.4081V9.18334C15.4081 9.63621 15.7885 10.0034 16.2577 10.0034C16.7269 10.0034 17.1072 9.63621 17.1072 9.18334V7.16346H19.666C19.8382 7.16346 19.9835 7.29334 19.9969 7.46129L21.2923 23.2176C21.3575 24.0375 21.0745 24.8212 20.4956 25.4245Z" fill="url(#paint0_linear_121_323)"/>
<defs>
<linearGradient id="paint0_linear_121_323" x1="-7.42283e-07" y1="29" x2="23" y2="-3.23111e-09" gradientUnits="userSpaceOnUse">
<stop stop-color="#9B51E0"/>
<stop offset="1" stop-color="#3081ED"/>
</linearGradient>
</defs>
</svg>
