<svg width="25" height="30" viewBox="0 0 25 30" fill="none" xmlns="http://www.w3.org/2000/svg">
<path d="M24.2355 24.0703L24.2354 24.0696L22.94 8.31388C22.94 8.31373 22.94 8.31358 22.94 8.31343C22.8481 7.16131 21.8435 6.27338 20.666 6.27338H18.3555C18.2789 3.20705 15.6738 0.75 12.5001 0.75C9.32639 0.75 6.72125 3.20705 6.64462 6.27338H4.3342C3.15677 6.27338 2.15189 7.16113 2.06035 8.31144C2.06034 8.31155 2.06033 8.31166 2.06033 8.31178L0.764546 24.0717L0.764492 24.0724C0.658448 25.4068 1.13807 26.733 2.07754 27.712C3.01665 28.6907 4.34528 29.25 5.72312 29.25H19.277C20.6547 29.25 21.9834 28.6907 22.9226 27.712L22.7422 27.5389L22.9226 27.712C23.8621 26.7329 24.3416 25.4067 24.2355 24.0703ZM4.25266 8.47959L4.25271 8.47886C4.25497 8.4504 4.2848 8.41346 4.3342 8.41346H6.64289V10.1833C6.64289 10.7825 7.14361 11.2534 7.74245 11.2534C8.34128 11.2534 8.842 10.7825 8.842 10.1833V8.41346H16.1581V10.1833C16.1581 10.7825 16.6589 11.2534 17.2577 11.2534C17.8565 11.2534 18.3572 10.7825 18.3572 10.1833V8.41346H20.666C20.7142 8.41346 20.7451 8.44935 20.7477 8.48113L20.7477 8.48177L22.0431 24.2374C22.0431 24.2375 22.0431 24.2375 22.0431 24.2376C22.1024 24.9849 21.8455 25.6987 21.3152 26.2514C20.7845 26.8044 20.0622 27.1099 19.277 27.1099H5.72317C4.93794 27.1099 4.21568 26.8044 3.6849 26.2514C3.15457 25.6987 2.89781 24.9849 2.95696 24.24C2.95697 24.2398 2.95698 24.2397 2.95699 24.2396L4.25266 8.47959ZM8.84482 6.27338C8.92082 4.40312 10.5236 2.89008 12.5001 2.89008C14.4765 2.89008 16.0793 4.40317 16.1553 6.27338H8.84482Z" fill="white" stroke="#3B3B3B" stroke-width="0.5"/>
</svg>
