<svg width="24" height="21" viewBox="0 0 24 21" fill="none" xmlns="http://www.w3.org/2000/svg">
<path d="M11.2744 3.44775L11.9979 4.20625L12.7215 3.44775C13.7674 2.35142 15.4668 1.00003 17.3118 1.00003C19.042 1.00003 20.4513 1.59996 21.4258 2.57418C22.4002 3.54838 23.0001 4.95706 23.0001 6.68612C23.0001 8.56435 22.2688 10.1359 21.0979 11.5974C19.9078 13.0828 18.3142 14.3953 16.6449 15.7651C16.6448 15.7651 16.6448 15.7652 16.6447 15.7652L16.625 15.7813C15.0848 17.0446 13.4051 18.4223 12.1006 19.9664C12.0809 19.9893 12.0546 20 12.0307 20H11.9674C11.9424 20 11.9152 19.9887 11.8957 19.9656L11.1328 20.6122L11.8973 19.9675C10.6057 18.4359 8.94127 17.0687 7.41381 15.814L7.35488 15.7656L7.35448 15.7652C5.68458 14.3949 4.0912 13.0821 2.90152 11.5967C1.73102 10.1352 1.00012 8.56391 1.00012 6.68612C1.00012 4.95706 1.60001 3.54841 2.57459 2.57422C3.54919 1.60001 4.95876 1.00003 6.68958 1.00003C8.53291 1.00003 10.2277 2.35059 11.2744 3.44775Z" stroke="url(#paint0_linear_90_347)" stroke-width="2"/>
<defs>
<linearGradient id="paint0_linear_90_347" x1="0.00012207" y1="3.05176e-05" x2="24.0001" y2="21" gradientUnits="userSpaceOnUse">
<stop offset="0.328125" stop-color="#9B51E0"/>
<stop offset="1" stop-color="#3081ED"/>
</linearGradient>
</defs>
</svg>
