<svg width="568" height="69" viewBox="0 0 568 69" fill="none" xmlns="http://www.w3.org/2000/svg">
<path d="M540.507 0.0836182C552.366 4.43475 558.871 9.16548 558.871 14.1007C558.871 35.6227 435.85 53.0857 284.103 53.0857C132.357 53.0857 9.33584 35.5643 9.33584 14.1007C9.33584 9.16548 15.8408 4.43475 27.6997 0.0836182C10.2281 5.31082 0.44165 11.1513 0.44165 17.3129C0.44165 39.5651 127.435 57.6121 284.103 57.6121C440.772 57.6121 567.765 39.5651 567.765 17.3129C567.765 11.2097 557.979 5.36923 540.507 0.0836182Z" fill="white"/>
<path d="M291.28 57.6121C291.28 55.3997 290.624 53.237 289.395 51.3975C288.166 49.5579 286.419 48.1242 284.375 47.2775C282.331 46.4309 280.081 46.2094 277.912 46.641C275.742 47.0726 273.748 48.138 272.184 49.7024C270.62 51.2668 269.554 53.2599 269.123 55.4298C268.691 57.5997 268.913 59.8489 269.759 61.8928C270.606 63.9368 272.04 65.6839 273.879 66.913C275.719 68.1421 277.881 68.7982 280.094 68.7982C283.059 68.7931 285.901 67.6129 287.998 65.5162C290.095 63.4195 291.275 60.5773 291.28 57.6121Z" fill="white"/>
<path d="M272.104 57.5677L278.496 52.8181V62.3839L272.104 57.5677Z" fill="#5A4C8D"/>
<path d="M288.084 57.6343L281.692 62.3839V52.8181L288.084 57.6343Z" fill="#5A4C8D"/>
</svg>
