<svg width="50" height="46" viewBox="0 0 50 46" fill="none" xmlns="http://www.w3.org/2000/svg">
<path d="M28.2292 2.9182V2.76461C28.2292 2.04786 28.4646 1.40688 28.9333 0.843717C29.4021 0.280556 30 0 30.7292 0C31.4583 0 32.1104 0.22936 32.6833 0.690128C33.2562 1.1509 33.5687 1.76525 33.6208 2.5332C33.6729 3.30115 33.4375 3.94213 32.9167 4.45409C32.3958 4.96605 31.7708 5.22204 31.0417 5.22204L30.5729 5.37563L30.7292 5.60499L30.5729 6.45075L30.2604 8.90818C30.3646 9.01057 30.4167 9.11297 30.4167 9.21536L30.1042 10.7513C30 10.956 29.8958 11.1096 29.7917 11.212L29.6354 11.8264C29.3627 12.9123 29.05 13.9881 28.6979 15.0518V15.3589C28.5937 15.8709 28.5167 16.2805 28.4646 16.5876C28.4125 16.8948 28.2292 17.4068 27.9167 18.1235C27.7083 18.5331 27.7083 19.1987 27.9167 20.1202L28.0729 20.2738C28.0729 20.581 28.2042 20.9393 28.4646 21.3489C28.725 21.7585 28.8542 22.1169 28.8542 22.424C28.9583 24.4719 28.8021 26.2126 28.3854 27.6461L28.6979 28.5676C29.9479 29.182 30.3125 29.8475 29.7917 30.5643L30.5729 30.8715C31.8229 31.4858 32.7083 32.0224 33.2292 32.4831C33.75 32.9439 34.2708 33.4313 34.7917 33.9432C35.2083 34.0456 35.5208 34.1992 35.7292 34.404L36.1979 34.5576C38.3854 35.9911 40.5729 37.7318 42.7604 39.7796L43.3854 40.2404V40.394L43.2292 40.7012L43.6979 41.0084H43.8542C44.1667 41.2131 44.375 41.3155 44.4792 41.3155H44.6354C44.7396 41.3155 44.8438 41.2643 44.9479 41.1619L45.2604 41.0084C45.4688 40.8036 45.6771 40.65 45.8854 40.5476H46.5104C46.6146 40.5476 46.6146 40.5988 46.5104 40.7012L45.8854 41.0084L45.1042 41.9299H46.1979L47.2917 42.0835C47.6042 41.9811 47.8646 41.8787 48.0729 41.7763L48.8542 41.3155C49.1667 41.2131 49.4792 41.3155 49.7917 41.6227H49.9479C50.0521 41.7251 50 41.8787 49.7917 42.0835L47.9167 43.773C47.3958 44.1825 46.9271 44.4385 46.5104 44.5409L44.4792 45.9232C44.375 46.0256 44.2708 46.0256 44.1667 45.9232L43.6979 45.3088L43.3854 44.6945L42.9937 44.1559L42.525 43.5415L42.1354 43.0808L41.8229 42.6978L41.1979 42.2371C40.9896 42.2371 40.7812 42.1859 40.5729 42.0835L38.5417 40.5476C38.2292 40.5476 37.8646 40.394 37.4479 40.0868C35.8854 38.7557 34.8438 37.9366 34.3229 37.6294L33.3854 37.015L31.5104 36.7078C30.8854 36.6055 30.0521 36.2983 29.0104 35.7863L27.7604 35.172C26.9271 34.7624 26.3542 34.5576 26.0417 34.5576L25.4167 34.2504C25 34.148 24.6875 34.0456 24.4792 33.9432L24.1667 33.6361C23.9583 33.6361 23.75 33.6873 23.5417 33.7896L20.4167 35.3255L16.5104 37.015C15.4688 37.8342 14.4792 38.4997 13.5417 39.0117L11.8229 39.7796L9.16667 41.6227C8.95833 41.8275 8.75 41.8275 8.54167 41.6227L8.22917 41.9299C7.91667 42.0323 7.70833 42.0835 7.60417 42.0835L6.97917 42.3907V42.6978H6.66667L6.35417 43.1586C6.14583 43.5682 5.9375 43.7975 5.72917 43.8487C5.52083 43.8999 5.39167 43.9777 5.33958 44.0801C5.29997 44.1641 5.24725 44.2415 5.18333 44.3095L4.87083 44.6167L4.40208 44.9239L3.69792 44.8481L2.76042 45.0017L2.13542 45.1553C1.61458 45.2577 1.19792 45.1798 0.885417 44.9239C0.572917 44.6679 0.3125 44.2849 0.104167 43.773C-0.104167 43.4658 0 43.2098 0.416667 43.005L0.572917 42.8514C0.677083 42.749 0.833333 42.6978 1.04167 42.6978H1.97917L3.22917 42.2371L3.85417 42.0835C3.85417 41.8787 3.90625 41.7251 4.01042 41.6227C4.11458 41.5203 4.27083 41.4691 4.47917 41.4691V41.3155C4.37877 41.1256 4.32524 40.9152 4.32292 40.7012C4.21875 40.4964 4.19167 40.3428 4.24583 40.2404C4.29792 40.138 4.35 40.0868 4.40208 40.0868H4.47917L4.63542 40.5476C4.73958 41.0595 4.89583 41.2131 5.10417 41.0084L5.26042 40.7012C5.36458 40.4964 5.52083 40.394 5.72917 40.394L6.04167 40.7012L6.35417 40.394L6.19792 40.2404C6.19792 40.138 6.25 40.0868 6.35417 40.0868L6.97917 39.4725C7.5 38.8581 8.125 38.2949 8.85417 37.783C10.3125 36.6567 11.875 35.7863 13.5417 35.172C14.0625 34.66 14.6354 34.404 15.2604 34.404C15.6771 33.6873 16.3021 32.9193 17.1354 32.1002C17.8646 31.5882 18.3854 31.2298 18.6979 31.025C18.9062 30.6155 19.1667 30.4107 19.4792 30.4107H19.6354L19.9479 30.1035C20.1562 30.0011 20.3125 29.8987 20.4167 29.7963V29.0284C20.4167 28.5164 20.4688 28.1068 20.5729 27.7997C20.6771 27.4925 20.9375 27.3389 21.3542 27.3389L21.9792 26.7245C21.7708 26.315 21.6667 25.8542 21.6667 25.3422H21.5104C21.3021 25.0351 21.1979 24.7279 21.1979 24.4207C20.8854 23.9087 20.6771 23.4992 20.5729 23.192H20.1042C20 23.4992 19.7396 23.704 19.3229 23.8063L19.1667 24.1135C18.75 24.8303 18.3854 25.3668 18.0729 25.7252C17.7604 26.0836 17.1875 26.5198 16.3542 27.0317C15.8333 27.5437 15.4687 28.1068 15.2604 28.7212C15.1562 29.0284 15.1562 29.3356 15.2604 29.6427L15.1042 29.9499H15.2604C15.2604 30.1547 15.3125 30.2571 15.4167 30.2571H15.5729C15.7812 30.3595 15.8854 30.4865 15.8854 30.64C15.8854 30.7936 15.7292 30.8448 15.4167 30.7936C15.1559 30.7654 14.9105 30.6581 14.7146 30.4865C14.5583 30.3329 14.4271 30.2571 14.3229 30.2571L13.8542 30.7179C13.6458 31.025 13.4375 31.152 13.2292 31.1008C13.0208 31.0496 12.9688 30.9738 13.0729 30.8715L13.2292 30.7179C13.3333 30.5131 13.3333 30.4107 13.2292 30.4107L11.9792 30.7179C11.875 30.8203 11.7458 30.8203 11.5896 30.7179C11.4333 30.6155 11.4583 30.5131 11.6667 30.4107L12.4479 30.1035C12.4479 30.0011 12.3958 29.9499 12.2917 29.9499C11.875 30.1547 11.4583 30.2059 11.0417 30.1035L10.2604 29.9499L10.1042 29.7963C10.1042 29.6939 10.1562 29.6427 10.2604 29.6427C10.6771 29.7451 11.1979 29.6939 11.8229 29.4891L12.9167 29.0284L14.1667 27.6461L14.3229 27.3389C14.7396 26.5198 15.1833 25.7764 15.6521 25.1108C16.0647 24.506 16.5643 23.9631 17.1354 23.4992L17.2917 22.8848C17.5 22.4752 17.7083 22.1169 17.9167 21.8097C18.125 21.5025 18.3854 21.0929 18.6979 20.581L19.1667 19.9666C19.5833 19.3523 20.0521 19.0451 20.5729 19.0451L21.0417 18.5843C21.1458 18.4819 21.1979 18.3283 21.1979 18.1235L21.5104 17.8164L21.3542 17.6628C20.7292 17.1508 20.4167 16.69 20.4167 16.2805C20.3125 15.5637 20.5479 14.9494 21.1208 14.4374C21.6937 13.9254 22.2667 13.694 22.8396 13.7452C23.4125 13.7964 23.8542 13.9766 24.1667 14.2838L24.4792 14.591C24.5833 14.591 24.6354 14.6422 24.6354 14.7446L25.2604 15.0518V15.5125C25.4687 15.7173 25.5729 15.8709 25.5729 15.9733C25.7812 15.6661 26.0938 15.3077 26.5104 14.8982L27.2917 12.4407C27.2917 12.0312 27.3958 11.6216 27.6042 11.212L27.9167 10.7513V10.4441L28.3854 8.601H28.6979L29.1667 6.75793C29.2714 6.40694 29.2714 6.03379 29.1667 5.6828L28.5417 4.14691L28.2292 2.9182Z" fill="url(#paint0_linear_127_876)"/>
<defs>
<linearGradient id="paint0_linear_127_876" x1="0" y1="0" x2="49.6453" y2="46.3797" gradientUnits="userSpaceOnUse">
<stop stop-color="#9B51E0"/>
<stop offset="1" stop-color="#3081ED"/>
</linearGradient>
</defs>
</svg>
