<svg width="32" height="32" viewBox="0 0 32 32" fill="none" xmlns="http://www.w3.org/2000/svg">
<g clip-path="url(#clip0_27_678)">
<path d="M27.6667 14.5186H4.33333C2.49238 14.5186 1 15.8451 1 17.4815V27.8519C1 29.4883 2.49238 30.8149 4.33333 30.8149H27.6667C29.5076 30.8149 31 29.4883 31 27.8519V17.4815C31 15.8451 29.5076 14.5186 27.6667 14.5186Z" stroke="#9A9A9A" stroke-linecap="round" stroke-linejoin="round"/>
<path d="M7.66675 14.5185V8.59259C7.66675 6.62802 8.54472 4.74392 10.1075 3.35476C11.6703 1.9656 13.7899 1.18518 16.0001 1.18518C18.2102 1.18518 20.3298 1.9656 21.8926 3.35476C23.4554 4.74392 24.3334 6.62802 24.3334 8.59259V14.5185" stroke="#9A9A9A" stroke-linecap="round" stroke-linejoin="round"/>
</g>
<defs>
<clipPath id="clip0_27_678">
<rect width="32" height="32" fill="white"/>
</clipPath>
</defs>
</svg>
