<svg width="32" height="32" viewBox="0 0 32 32" fill="none" xmlns="http://www.w3.org/2000/svg">
<path d="M9.71079 3H5.73684C4.22533 3 3 4.22533 3 5.73684C3 18.5847 13.4153 29 26.2632 29C27.7747 29 29 27.7747 29 26.2632V22.2892C29 21.1079 28.2808 20.0457 27.184 19.6069L23.377 18.0841C22.3917 17.69 21.2698 17.8678 20.4546 18.5471L19.4711 19.3666C18.3233 20.3232 16.6355 20.2466 15.579 19.1901L12.8099 16.421C11.7534 15.3645 11.6768 13.6767 12.6334 12.5289L13.4529 11.5454C14.1322 10.7302 14.31 9.60826 13.9159 8.62305L12.3931 4.81598C11.9543 3.71919 10.8921 3 9.71079 3Z" stroke="white" stroke-linecap="round" stroke-linejoin="round"/>
</svg>
