<svg width="14" height="13" viewBox="0 0 14 13" fill="none" xmlns="http://www.w3.org/2000/svg">
<path d="M10.2656 8.38358H9.61682L9.38688 8.17781C10.3723 7.11087 10.8815 5.65526 10.6023 4.1082C10.2163 1.98956 8.3111 0.297696 6.01173 0.0385818C2.53804 -0.35771 -0.385452 2.35537 0.041574 5.57905C0.320784 7.71293 2.14386 9.481 4.42681 9.83919C6.09385 10.0983 7.66235 9.6258 8.81204 8.71128L9.03376 8.92467V9.52673L12.5239 12.7657C12.8606 13.0781 13.4108 13.0781 13.7475 12.7657C14.0842 12.4532 14.0842 11.9426 13.7475 11.6301L10.2656 8.38358ZM5.33834 8.38358C3.29354 8.38358 1.64292 6.85176 1.64292 4.95413C1.64292 3.0565 3.29354 1.52468 5.33834 1.52468C7.38314 1.52468 9.03376 3.0565 9.03376 4.95413C9.03376 6.85176 7.38314 8.38358 5.33834 8.38358Z" fill="white"/>
</svg>
