<svg width="23" height="19" viewBox="0 0 23 19" fill="none" xmlns="http://www.w3.org/2000/svg">
<path d="M22.4284 0.402813C21.477 1.0739 20.4236 1.58718 19.3088 1.92288C18.7105 1.23488 17.9153 0.747253 17.0307 0.525934C16.1462 0.304615 15.2151 0.360286 14.3632 0.685419C13.5114 1.01055 12.7799 1.58946 12.2678 2.34384C11.7557 3.09823 11.4876 3.99169 11.4999 4.9034V5.8969C9.75391 5.94217 8.02385 5.55495 6.46378 4.76972C4.90372 3.98448 3.56206 2.82561 2.5583 1.39632C2.5583 1.39632 -1.41572 10.3379 7.52583 14.3119C5.47974 15.7008 3.0423 16.3972 0.571289 16.2989C9.51285 21.2664 20.4414 16.2989 20.4414 4.87359C20.4405 4.59685 20.4139 4.3208 20.3619 4.04898C21.3759 3.04901 22.0915 1.78648 22.4284 0.402813V0.402813Z" fill="url(#paint0_linear_27_688)"/>
<defs>
<linearGradient id="paint0_linear_27_688" x1="23.4999" y1="-3.00003" x2="2.49988" y2="18" gradientUnits="userSpaceOnUse">
<stop stop-color="#9B51E0"/>
<stop offset="1" stop-color="#3081ED" stop-opacity="0.4"/>
</linearGradient>
</defs>
</svg>
